# xmcd
#
# Track frame offsets:
# 225
# 13576
# 25278
# 39170
# 51246
# 66291
# 77992
# 92323
# 105974
# 120733
# 130153
# 142409
#
# Disc length: 2078 seconds
#
#
# Revision: 0
# Processed by: cddbd v1.4PL0 Copyright (c) Steve Scherf et al.
# Submitted via: FreeRIP 2.00 
#
DISCID=9c081b0c
DTITLE=Los Traileros Del Norte  - Las Cumbias Mas Pesadas
DYEAR=2001
DGENRE=Norteñas
TTITLE0=Quisiera Ser Una Lagrima 
TTITLE1=La Burra Tuerta 
TTITLE2=La Hormiguita
TTITLE3=No Le Hace Que Aunque 
TTITLE4=En La Esquina
TTITLE5=La Trailerita
TTITLE6=Marylee
TTITLE7=El Caiman
TTITLE8=La Bonga
TTITLE9=El Conejito
TTITLE10=De quen Chon 
TTITLE11=Prudencia y Regina 
EXTD=
EXTT0=
EXTT1=
EXTT2=
EXTT3=
EXTT4=
EXTT5=
EXTT6=
EXTT7=
EXTT8=
EXTT9=
EXTT10=
EXTT11=
PLAYORDER=
